# xmcd
#
# Track frame offsets: 
#        150
#        31966
#        47689
#        66342
#        80018
#        94644
#        119602
#        150893
#        176056
#        208445
#        228603
#        241963
#        268626
#        282472
#
# Disc length: 4223 seconds
#
# Revision: 0
# Processed by: cddbd v1.5.2PL0 Copyright (c) Steve Scherf et al.
# Submitted via: ExactAudioCopy v0.99pb4
#
DISCID=ca107d0e
DTITLE=Stevie Ray Vaughan - Stevie Ray Vaughan
DYEAR=2007
DGENRE=Blues
TTITLE0=1. The Sky Is Crying 
TTITLE1=2. Soulful Dress 
TTITLE2=3. Don't Stop By the Creek, Son
TTITLE3=4. Miami Strut 
TTITLE4=5. Na-Na-Ne-Na-Nay 
TTITLE5=6. Goin' Down 
TTITLE6=7. Oreo Cookie Blues 
TTITLE7=8. On the Run 
TTITLE8=9. Albert's Shuffle 
TTITLE9=10. Change It 
TTITLE10=11. You Can Have My Husband 
TTITLE11=12. Texas Flood 
TTITLE12=13. Pipeline 
TTITLE13=14. Let's Dance 
EXTD=
EXTT0=
EXTT1=
EXTT2=
EXTT3=
EXTT4=
EXTT5=
EXTT6=
EXTT7=
EXTT8=
EXTT9=
EXTT10=
EXTT11=
EXTT12=
EXTT13=
PLAYORDER=
